<?xml version="1.0" encoding="UTF-8"?>
<svg id="Layer_1" xmlns="http://www.w3.org/2000/svg" version="1.1" viewBox="0 0 1000 1000">
  <!-- Generator: Adobe Illustrator 30.1.0, SVG Export Plug-In . SVG Version: 2.1.1 Build 136)  -->
  <defs>
    <style>
      .st0 {
        opacity: .3;
      }

      .st1 {
        fill: #fff;
        fill-rule: evenodd;
      }
    </style>
  </defs>
  <g class="st0">
    <path class="st1" d="M114.25,532.53c-10.02-33.34-17.99-67.3-23.98-101.6-6.1-34.9-10.13-70.17-12.2-105.54-1.25-21.33-1.8-42.7-1.54-64.07.24-19.86,1.19-39.73,3.07-59.5l4.25-44.68,44.96-.85c40.48-.77,80.87-5.49,120.34-14.54,37.86-8.69,74.73-21.35,109.76-38.19,20.22-9.72,39.9-20.85,58.56-33.31,16.93-11.31,33.22-23.86,48.05-37.82L500,0l34.49,32.45c14.83,13.96,31.12,26.51,48.05,37.82,18.66,12.46,38.34,23.59,58.56,33.31,35.02,16.84,71.89,29.5,109.76,38.19,39.47,9.05,79.86,13.77,120.34,14.54l44.96.85,4.25,44.68c1.88,19.77,2.83,39.64,3.07,59.49.26,21.36-.29,42.74-1.54,64.07-2.07,35.37-6.1,70.64-12.2,105.54-5.99,34.29-13.97,68.25-23.98,101.6-28.61,95.27-73.36,183.79-135.4,261.7-62.22,78.15-138.77,141.81-225.33,191.42l-25.03,14.34-25.03-14.34c-86.55-49.6-163.11-113.27-225.33-191.42-62.03-77.91-106.78-166.44-135.4-261.7h0ZM500,949.02l3.06-1.75c81.67-46.81,153.99-106.8,212.71-180.55,58.51-73.48,100.64-157,127.62-246.84,9.52-31.69,17.08-63.96,22.77-96.55,5.8-33.2,9.69-66.75,11.66-100.4,1.19-20.33,1.77-40.71,1.52-61.07-.22-18.64-1.12-37.29-2.89-55.85l-.52-5.46-5.48-.1c-43.54-.83-87.01-5.86-129.47-15.6-41.05-9.42-80.99-23.21-118.96-41.46-22.12-10.63-43.64-22.78-64.05-36.41-18.95-12.66-37.16-26.71-53.77-42.34l-4.21-3.96-4.21,3.96c-16.61,15.62-34.82,29.68-53.77,42.34-20.41,13.63-41.93,25.78-64.05,36.41-37.97,18.25-77.91,32.04-118.96,41.46-42.46,9.74-85.93,14.78-129.47,15.6l-5.48.1-.52,5.46c-1.77,18.56-2.67,37.21-2.89,55.85-.25,20.36.33,40.74,1.52,61.07,1.97,33.65,5.86,67.2,11.66,100.4,5.7,32.59,13.26,64.87,22.77,96.55,26.99,89.85,69.12,173.36,127.62,246.85,58.72,73.75,131.04,133.74,212.71,180.55l3.06,1.75Z"/>
    <path class="st1" d="M835.3,237.96c-95.66-3.57-172.03-27.67-228.98-55.05-50.81-24.42-86.27-51.47-106.32-68.98-20.04,17.5-55.51,44.55-106.31,68.98-56.96,27.38-133.32,51.48-228.99,55.05-3.28,45.66-5.43,153.4,31.3,275.69,39.7,132.17,125.03,281.16,304,386.14,178.98-104.98,264.3-253.96,304-386.14,36.73-122.28,34.58-230.03,31.3-275.69Z"/>
  </g>
</svg>